<svg xmlns="http://www.w3.org/2000/svg" width="27" height="23" viewBox="0 0 27 23">
  <defs>
    <style>
      .cls-1 {
        fill: #fff;
        fill-rule: evenodd;
      }
    </style>
  </defs>
  <path id="Twitter" class="cls-1" d="M1318,3330.72a10.41,10.41,0,0,1-3.18.92,5.794,5.794,0,0,0,2.43-3.21,11.1,11.1,0,0,1-3.51,1.41,5.42,5.42,0,0,0-4.05-1.84,5.679,5.679,0,0,0-5.54,5.81,5.808,5.808,0,0,0,.15,1.32,15.463,15.463,0,0,1-11.42-6.07,5.981,5.981,0,0,0-.75,2.92,5.913,5.913,0,0,0,2.46,4.84,5.471,5.471,0,0,1-2.5-.73,0.17,0.17,0,0,0-.01.07,5.744,5.744,0,0,0,4.45,5.69,5.1,5.1,0,0,1-1.46.21,5.022,5.022,0,0,1-1.04-.11,5.586,5.586,0,0,0,5.17,4.04,10.81,10.81,0,0,1-6.88,2.48,11.412,11.412,0,0,1-1.32-.08,15.129,15.129,0,0,0,8.49,2.61c10.19,0,15.76-8.85,15.76-16.52,0-.25,0-0.5-0.01-0.75a11.5,11.5,0,0,0,2.76-3.01" transform="translate(-1291 -3328)"/>
</svg>
