<?xml version="1.0" standalone="no"?>
<!DOCTYPE svg PUBLIC "-//W3C//DTD SVG 20010904//EN"
 "http://www.w3.org/TR/2001/REC-SVG-20010904/DTD/svg10.dtd">
<svg version="1.0" xmlns="http://www.w3.org/2000/svg"
 width="16.000000pt" height="16.000000pt" viewBox="0 0 16.000000 16.000000"
 preserveAspectRatio="xMidYMid meet">
<metadata>
Created by potrace 1.11, written by Peter Selinger 2001-2013
</metadata>
<g transform="translate(0.000000,16.000000) scale(0.008081,-0.008081)"
fill="#000000" stroke="none">
<path d="M0 990 l0 -960 485 0 c391 0 485 3 485 13 0 7 -58 70 -128 140 l-129
127 -189 0 c-135 0 -194 4 -202 12 -9 9 -12 67 -12 202 l0 191 -135 132 c-74
73 -135 138 -135 145 0 7 61 74 137 150 l136 138 -6 190 c-6 180 -6 190 13
200 11 6 98 10 207 10 l188 0 123 123 c67 67 122 128 122 135 0 9 -106 12
-480 12 l-480 0 0 -960z"/>
<path d="M1020 1937 c0 -7 55 -67 123 -135 l122 -122 188 0 c109 0 196 -4 207
-10 19 -10 19 -20 13 -200 l-6 -190 136 -138 c76 -76 137 -143 137 -150 0 -7
-61 -72 -135 -145 l-135 -132 0 -191 c0 -135 -3 -193 -12 -202 -8 -8 -67 -12
-202 -12 l-189 0 -129 -127 c-70 -70 -128 -133 -128 -140 0 -10 94 -13 485
-13 l485 0 0 960 0 960 -480 0 c-380 0 -480 -3 -480 -13z"/>
<path d="M865 1759 c-60 -60 -123 -117 -138 -125 -26 -14 -29 -34 -5 -34 6 0
61 50 123 110 97 97 115 110 145 110 30 0 48 -13 145 -110 62 -60 117 -110
123 -110 23 0 22 20 -2 32 -14 7 -76 64 -139 126 -63 61 -120 112 -128 112 -8
0 -63 -50 -124 -111z"/>
<path d="M873 1660 l-111 -110 -154 0 c-106 0 -158 -4 -166 -12 -8 -8 -12 -60
-12 -166 l0 -154 -107 -109 c-60 -60 -109 -112 -110 -117 -2 -4 47 -58 107
-121 l110 -113 0 -152 c0 -105 4 -156 12 -164 8 -8 59 -12 164 -12 l151 0 113
-110 c61 -60 116 -110 120 -110 4 0 59 50 120 110 l113 110 151 0 c105 0 156
4 164 12 8 8 12 59 12 164 l0 152 110 113 c60 63 109 117 107 121 -1 5 -50 57
-109 117 l-108 109 0 154 c0 106 -4 158 -12 166 -8 8 -60 12 -166 12 l-154 0
-109 108 c-61 59 -114 108 -117 109 -4 2 -57 -47 -119 -107z m240 -391 c87
-27 92 -34 65 -97 -23 -55 -34 -61 -85 -41 -39 15 -130 14 -148 -1 -26 -21
-18 -56 19 -84 19 -14 39 -26 45 -26 26 0 135 -76 161 -112 25 -34 30 -51 30
-100 0 -68 -25 -126 -67 -156 -74 -53 -207 -64 -314 -27 -49 17 -59 31 -59 92
0 64 22 78 78 49 67 -33 181 -26 202 13 15 29 -22 67 -99 103 -39 19 -85 52
-113 81 l-48 48 0 82 c0 78 2 84 33 120 61 72 179 94 300 56z"/>
<path d="M370 1573 l0 -37 30 29 c17 16 30 32 30 37 0 4 -13 8 -30 8 -28 0
-30 -3 -30 -37z"/>
<path d="M1550 1602 c0 -5 14 -21 30 -37 l30 -29 0 37 c0 34 -2 37 -30 37 -16
0 -30 -4 -30 -8z"/>
<path d="M349 1260 c-8 -16 -68 -84 -133 -150 l-119 -120 119 -120 c65 -67
126 -135 135 -152 13 -25 17 -28 22 -14 10 26 -2 41 -112 151 -136 135 -137
131 9 280 61 62 110 117 110 121 0 5 -4 15 -8 22 -6 8 -13 3 -23 -18z"/>
<path d="M1607 1275 c-4 -9 -7 -19 -7 -22 0 -3 50 -56 110 -118 146 -149 145
-145 9 -280 -110 -110 -122 -125 -112 -151 5 -14 9 -11 22 14 9 17 70 85 135
152 l119 120 -119 120 c-65 67 -126 135 -135 152 -13 25 -17 28 -22 13z"/>
<path d="M370 408 c0 -34 3 -38 25 -38 31 0 32 11 0 47 l-24 28 -1 -37z"/>
<path d="M1581 414 c-27 -35 -26 -44 4 -44 22 0 25 4 25 35 0 19 -2 35 -4 35
-3 0 -14 -12 -25 -26z"/>
<path d="M570 361 c80 -4 153 -11 162 -16 10 -6 69 -61 131 -123 63 -61 120
-112 127 -112 7 0 64 51 127 112 62 62 121 117 131 123 9 5 82 12 162 16 l145
5 -160 2 -160 2 -105 -105 c-141 -142 -139 -142 -280 0 l-105 105 -160 -2
-160 -2 145 -5z"/>
</g>
</svg>
